<?xml version="1.0" encoding="utf-8"?>
<!-- Generator: Adobe Illustrator 17.1.0, SVG Export Plug-In . SVG Version: 6.00 Build 0)  -->
<!DOCTYPE svg PUBLIC "-//W3C//DTD SVG 1.1//EN" "http://www.w3.org/Graphics/SVG/1.1/DTD/svg11.dtd">
<svg version="1.1" id="Layer_1" xmlns="http://www.w3.org/2000/svg" xmlns:xlink="http://www.w3.org/1999/xlink" x="0px" y="0px"
	 viewBox="0 0 200 100" enable-background="new 0 0 200 100" xml:space="preserve">
<path fill="#4C4E4D" d="M91.8,4.3h2.8l0.3-1.2H60.1l-0.3,1.2h5.1c4.4,0,7.9,3,7.9,9.1c0,3.3-1.4,7.8-3.8,13.1L46.4,76.5l-5.6-64.8
	c-0.4-5.1,2.1-7.4,7.8-7.4H52l0.3-1.2H3.2L2.7,4.3h3.2c3.8,0,5.3,2.4,5.8,7l8.7,83.7H41l34.6-73.2C80.8,11,86.3,4.3,91.8,4.3z
	 M87.8,95.5c-3.2,0-5.1-1-5.1-6.2c0-6.5,2.4-19.3,4.9-30.9c0.3,5.4,4,10.7,9.6,10.7c1.4,0,2.5-0.1,3.6-0.3
	C95.8,90.9,93.7,95.5,87.8,95.5z M186.1,51.5c6.5,0,10.7-5.4,10.7-11.5c0-5.2-3.7-9.1-9.1-9.1c-9.6,0-14.1,7.5-22,21.5
	c-1.7-8.7-5.6-20.1-15.8-20.1c-11.4,0-24.5,16.2-36.5,26.3c-5.4,4.5-11.5,7.5-16.4,7.5c-4.9,0-7.9-5.1-7.9-14
	c3.5-14.5,5.4-18.4,10.8-18.4c3.7,0,5.3,2.1,5.3,6.5c0,4.6-1,12.6-3,22.4c5.4-1.7,13.6-8.5,20.3-15.8c-3.6-8.6-11.3-14.5-22.5-14.5
	c-20.6,0-38.8,18.5-38.8,39.3c0,14.3,10.1,25.2,26,25.2c26.3,0,37.2-22.8,37.2-38.6c0-2.3-0.1-4-0.3-6c4-4.4,9.3-8.6,13.6-8.6
	c4.9,0,8.7,12.2,12.6,30.6c-3.3,3.7-6.8,11-8.5,12.2c-0.7-6.5-4.9-10.6-10.7-10.6c-6.5,0-11,6.1-11,11.3c0,5.9,4,9.7,9.4,9.7
	c11.2,0,14.3-10.6,21.3-19.9c2.1,10,7.1,19.9,15.7,19.9c10.1,0,19.6-8.7,24.5-14.9l-0.9-1.4c-3.2,3-6.2,5.1-9.7,5.1
	c-6.3,0-10.8-13.6-14.3-30.1c2.1-2.8,5.3-9.9,7.5-12.4C175.3,46,178.6,51.5,186.1,51.5z"/>
</svg>
