<svg version="1.1" id="Layer_1" xmlns="http://www.w3.org/2000/svg" xmlns:xlink="http://www.w3.org/1999/xlink" x="0px" y="0px"
	 viewBox="0 0 262.7 129.8" enable-background="new 0 0 262.7 129.8" xml:space="preserve">
  <path fill="#f1f3f2" d="M120.6,4.9h3.7l0.4-1.6H79l-0.4,1.6h6.7c5.8,0,10.4,4,10.4,12c0,4.4-1.9,10.2-5,17.2L61,99.7l-7.3-85.1
	C53.2,7.9,56.4,4.9,64,4.9h4.3l0.4-1.6H4.2L3.6,4.9h4.2c5,0,7,3.1,7.6,9.2l11.4,110h27.1l45.4-96.1C106.1,13.7,113.4,4.9,120.6,4.9z
	 M115.3,124.7c-4.2,0-6.7-1.3-6.7-8.2c0-8.6,3.1-25.4,6.5-40.6c0.4,7.1,5.3,14.1,12.6,14.1c1.8,0,3.3-0.1,4.7-0.4
	C125.8,118.6,123.1,124.7,115.3,124.7z M244.4,66.9c8.6,0,14.1-7.1,14.1-15.1c0-6.8-4.9-11.9-11.9-11.9c-12.6,0-18.5,9.9-28.9,28.3
	c-2.2-11.4-7.4-26.4-20.8-26.4c-15,0-32.2,21.3-48,34.5c-7.1,5.9-15.1,9.8-21.5,9.8c-6.5,0-10.4-6.7-10.4-18.4
	c4.6-19.1,7.1-24.2,14.2-24.2c4.9,0,7,2.8,7,8.6c0,6.1-1.3,16.5-4,29.4c7.1-2.2,17.8-11.1,26.7-20.8c-4.7-11.3-14.8-19-29.5-19
	c-27.1,0-50.9,24.3-50.9,51.6c0,18.8,13.3,33.1,34.2,33.1c34.5,0,48.9-29.9,48.9-50.7c0-3-0.1-5.2-0.4-7.9
	c5.3-5.8,12.2-11.3,17.8-11.3c6.4,0,11.4,16,16.5,40.2c-4.4,4.9-8.9,14.4-11.1,16c-0.9-8.6-6.5-13.9-14.1-13.9
	c-8.5,0-14.4,8-14.4,14.8c0,7.7,5.3,12.8,12.3,12.8c14.7,0,18.8-13.9,28-26.2c2.8,13.2,9.3,26.2,20.6,26.2
	c13.3,0,25.8-11.4,32.2-19.6l-1.2-1.9c-4.2,4-8.2,6.7-12.8,6.7c-8.3,0-14.2-17.9-18.8-39.6c2.7-3.7,7-13,9.9-16.3
	C230.3,59.6,234.6,66.9,244.4,66.9z"/>
</svg>
